<svg xmlns="http://www.w3.org/2000/svg" xmlns:xlink="http://www.w3.org/1999/xlink" version="1.1" x="0px" y="0px" viewBox="0 0 100 100" enable-background="new 0 0 100 100" xml:space="preserve"><g><path d="M50,43.105c-3.313,0-6-2.687-6-6V10c0-3.313,2.687-6,6-6s6,2.687,6,6v27.105C56,40.419,53.313,43.105,50,43.105z"/></g><g><path d="M50,96C26.483,96,7.352,76.868,7.352,53.352c0-13.895,6.8-26.957,18.19-34.942c2.713-1.901,6.454-1.244,8.357,1.469   c1.902,2.714,1.244,6.455-1.469,8.357c-8.189,5.741-13.079,15.131-13.079,25.116C19.352,70.251,33.101,84,50,84   s30.648-13.749,30.648-30.648c0-10.17-5.031-19.658-13.46-25.38c-2.741-1.861-3.455-5.592-1.594-8.334   c1.859-2.74,5.591-3.457,8.334-1.594c11.722,7.957,18.72,21.156,18.72,35.308C92.648,76.868,73.517,96,50,96z"/></g><text x="0" y="115" fill="#000000" font-size="5px" font-weight="bold" font-family="'Helvetica Neue', Helvetica, Arial-Unicode, Arial, Sans-serif">Created by Garrett Knoll</text><text x="0" y="120" fill="#000000" font-size="5px" font-weight="bold" font-family="'Helvetica Neue', Helvetica, Arial-Unicode, Arial, Sans-serif">from the Noun Project</text></svg>